# xmcd CD database file
#
# Track frame offsets:
#	183
#	12390
#	32353
#	48340
#	66043
#	84883
#	107813
#	126820
#	142093
#	162955
#	181440
#
# Disc length: 2643 seconds
#
# Revision: 0
# Processed by: cddbd v1.5.2PL0 Copyright (c) Steve Scherf et al.
# Submitted via: CDex 1.51
#
DISCID=8b0a510b
DTITLE=No Problem - Rock your soul
DYEAR=1989
DGENRE=Blues
TTITLE0=Baby I love you
TTITLE1=Get ready
TTITLE2=Got to make come back
TTITLE3=Honky tonk women
TTITLE4=I got the music in me
TTITLE5=Mustang sally
TTITLE6=Natural born boogie
TTITLE7=Shoo be doo be doo da day
TTITLE8=You've lost that lovin' feelin
TTITLE9=Slip away
TTITLE10=The letter
EXTD=YEAR: 1989
EXTT0=
EXTT1=
EXTT2=
EXTT3=
EXTT4=
EXTT5=
EXTT6=
EXTT7=
EXTT8=
EXTT9=
EXTT10=
PLAYORDER=
